<svg height="511pt" viewBox="1 -15 511.999 511" width="511pt" xmlns="http://www.w3.org/2000/svg"><path d="m45 240.5h145.789062l55.605469 55.605469c4.324219 4.320312 10.8125 5.558593 16.347657 3.25 5.609374-2.3125 9.257812-7.792969 9.257812-13.855469v-45h45c24.8125 0 45-20.1875 45-45v-150c0-24.816406-20.1875-45-45-45h-272c-24.8125 0-45 20.183594-45 45v150c0 24.8125 20.1875 45 45 45zm227-150c16.539062 0 30 13.460938 30 30s-13.460938 30-30 30-30-13.460938-30-30 13.460938-30 30-30zm-90 0c16.539062 0 30 13.460938 30 30s-13.460938 30-30 30-30-13.460938-30-30 13.460938-30 30-30zm-91 0c16.539062 0 30 13.460938 30 30s-13.460938 30-30 30-30-13.460938-30-30 13.460938-30 30-30zm0 0"/><path d="m15 480.5h209.859375c2.695313 0 8.378906-2.128906 8.890625-2.398438l42.601562-21.300781c1.199219-.601562 2.699219-1.5 3.898438-2.699219l-42.601562-42.601562c-1.199219 1.199219-2.097657 2.699219-2.699219 3.898438l-17.550781 35.101562h-202.398438c-8.289062 0-15 6.707031-15 15 0 8.289062 6.710938 15 15 15zm0 0"/><path d="m412.097656 237.796875-153.148437 152.703125 42.300781 42.300781 153.449219-152.402343zm0 0"/><path d="m486.5 185c-6-6-15.601562-6-21.300781 0l-31.800781 31.800781 42.300781 42.296875 31.800781-31.796875c6-5.703125 6-15.300781 0-21.300781zm0 0"/></svg>