<svg xmlns="http://www.w3.org/2000/svg" data-name="Layer 1" viewBox="0 0 168 168"><path fill="#2d4356" d="M45 42.38868a3 3 0 1 0-3-3A3.00344 3.00344 0 0 0 45 42.38868zm0-4.5a1.5 1.5 0 1 1-1.5 1.5A1.50148 1.50148 0 0 1 45 37.88868zM158.30471 67.38868a2 2 0 1 0 2 2A2.00229 2.00229 0 0 0 158.30471 67.38868zm0 3a1 1 0 1 1 1-1A1.001 1.001 0 0 1 158.30471 70.38868zM91 40.38868a2 2 0 1 0 2 2A2.00229 2.00229 0 0 0 91 40.38868zm0 3a1 1 0 1 1 1-1A1.001 1.001 0 0 1 91 43.38868zM144 30.3571a2 2 0 1 0 2 2A2.00229 2.00229 0 0 0 144 30.3571zm0 3a1 1 0 1 1 1-1A1.001 1.001 0 0 1 144 33.3571zM17.30471 26.38868a2 2 0 1 0-2 2A2.00229 2.00229 0 0 0 17.30471 26.38868zm-3 0a1 1 0 1 1 1 1A1.001 1.001 0 0 1 14.30471 26.38868z"/><polygon fill="#0bceb2" points="10.888 67.4 12.375 65.444 11.436 64.913 10.481 67.102 10.45 67.102 9.48 64.928 8.525 65.476 9.996 67.385 9.996 67.416 7.695 67.118 7.695 68.182 10.011 67.885 10.011 67.917 8.525 69.825 9.416 70.389 10.434 68.182 10.465 68.182 11.404 70.373 12.39 69.81 10.888 67.932 10.888 67.901 13.25 68.182 13.25 67.118 10.888 67.431 10.888 67.4"/><polygon fill="#0bceb2" points="67.887 7.95 67.031 9.049 67.544 9.374 68.13 8.103 68.148 8.103 68.689 9.365 69.257 9.04 68.392 7.959 68.392 7.941 69.752 8.103 69.752 7.491 68.392 7.671 68.392 7.653 69.248 6.527 68.707 6.22 68.157 7.481 68.139 7.481 67.581 6.229 67.031 6.545 67.878 7.644 67.878 7.662 66.553 7.491 66.553 8.103 67.887 7.932 67.887 7.95"/><polygon fill="#0bceb2" points="157.724 8.818 157.724 7.775 155.407 8.082 155.407 8.051 156.866 6.133 155.945 5.611 155.009 7.759 154.977 7.759 154.027 5.626 153.089 6.164 154.533 8.036 154.533 8.067 152.276 7.775 152.276 8.818 154.548 8.527 154.548 8.558 153.089 10.43 153.964 10.983 154.963 8.818 154.992 8.818 155.913 10.967 156.881 10.415 155.407 8.573 155.407 8.542 157.724 8.818"/><polygon fill="#0bceb2" points="120.351 17.974 121.609 16.32 120.815 15.87 120.008 17.723 119.981 17.723 119.16 15.883 118.352 16.346 119.597 17.962 119.597 17.988 117.65 17.736 117.65 18.636 119.61 18.385 119.61 18.412 118.352 20.026 119.106 20.503 119.968 18.636 119.994 18.636 120.788 20.49 121.622 20.013 120.351 18.424 120.351 18.398 122.35 18.636 122.35 17.736 120.351 18.001 120.351 17.974"/><circle cx="2" cy="146.389" r="2" fill="#2d4356"/><path fill="#2d4356" d="M11 144.38868H8a2 2 0 0 0 0 4h3a2 2 0 0 0 0-4zM160 144.38868h-3a2 2 0 0 0 0 4h3a2 2 0 0 0 0-4z"/><circle cx="166" cy="146.389" r="2" fill="#2d4356"/><path fill="#0bceb2" d="M118.15387 152.38868h-8.30774a2.00641 2.00641 0 0 0 0 4h8.30774a2.00641 2.00641 0 0 0 0-4zM58.15387 152.38868H49.84613a2.00641 2.00641 0 0 0 0 4h8.30774a2.00641 2.00641 0 0 0 0-4zM104 152.38868H64a2 2 0 0 0 0 4H79.94v2H72a2 2 0 0 0 0 4H97a2 2 0 0 0 0-4H88.06v-2H104a2 2 0 0 0 0-4z"/><path fill="#2d4356" d="M106,94.38868a17,17,0,1,0,17-17A17.01924,17.01924,0,0,0,106,94.38868Zm30,0a13,13,0,1,1-13-13A13,13,0,0,1,136,94.38868Z"/><path fill="#0bceb2" d="M116.61035,98.94971a2.00044,2.00044,0,0,0,2.7793,2.87793,5.24027,5.24027,0,0,1,7.2207,0,2.00044,2.00044,0,0,0,2.7793-2.87793A9.27771,9.27771,0,0,0,116.61035,98.94971Z"/><path fill="#2d4356" d="M62 94.38868a17 17 0 1 0-17 17A17.01924 17.01924 0 0 0 62 94.38868zm-30 0a13 13 0 1 1 13 13A13 13 0 0 1 32 94.38868zM67 94.38868a17 17 0 1 0 17-17A17.01924 17.01924 0 0 0 67 94.38868zm30 0a13 13 0 1 1-13-13A13 13 0 0 1 97 94.38868z"/><path fill="#0bceb2" d="M51.38916 100.82715a1.99975 1.99975 0 0 0-2.77832-2.877 5.24343 5.24343 0 0 1-7.22168 0 1.99975 1.99975 0 1 0-2.77832 2.877 9.27455 9.27455 0 0 0 12.77832 0zM77 100.38868a2.0001 2.0001 0 0 0 2 2H89a2 2 0 1 0 0-4H79A2.0001 2.0001 0 0 0 77 100.38868zM36 73.38868h96a2 2 0 0 0 0-4H36a2 2 0 0 0 0 4zM134 117.38868a2.0001 2.0001 0 0 0-2-2H36a2 2 0 0 0 0 4h96A2.0001 2.0001 0 0 0 134 117.38868z"/><path fill="#2d4356" d="M150.72131,144.38868H89.52979l11.45453-12H140a8.009,8.009,0,0,0,8-8v-60a8.009,8.009,0,0,0-8-8H28a8.009,8.009,0,0,0-8,8v60a8.00909,8.00909,0,0,0,8,8H67.01569l11.45453,12H17.27869a2.017,2.017,0,1,0,0,4H150.72131a2.017,2.017,0,1,0,0-4Zm-81.994-16H28a4,4,0,0,1-4-4v-60a4,4,0,0,1,4-4H140a4,4,0,0,1,4,4v60a4,4,0,0,1-4,4H99.27271L84,144.38868Z"/></svg>